Coordinates																															
version=1																															
nRows=17																															
nColumns=32																															
inDegrees=yes																															
																															
"Units are S.I. units (second, meters, Newtons, ...)"																															
"If the header above contains a line with 'inDegrees', this indicates whether rotational values are in degrees (yes) or radians (no)."																															
																															
endheader																															
time	pelvis_tilt	pelvis_list	pelvis_rotation	pelvis_tx	pelvis_ty	pelvis_tz	hip_flexion_r	hip_adduction_r	hip_rotation_r	knee_angle_r	ankle_angle_r	subtalar_angle_r	mtp_angle_r	hip_flexion_l	hip_adduction_l	hip_rotation_l	knee_angle_l	ankle_angle_l	subtalar_angle_l	mtp_angle_l	lumbar_extension	lumbar_bending	lumbar_rotation	arm_flex_r	arm_add_r	arm_rot_r	elbow_flex_r	arm_flex_l	arm_add_l	arm_rot_l	elbow_flex_l
0.351214286	-2.096511523	-7.205922748	-1.821692204	0.683869618	0.950938783	0.514363134	9.08575306	10.20348894	-5.523257484	26.9544583	10.8517652	-0.868324547	3.217197011	28.38962382	-10.22240546	-0.632319649	59.15753164	8.395569301	-14.81701903	0.974534195	-5.442012771	6.005669884	1.89289207	1.07384272	-13.6700846	-2.613603583	32.00334615	0.315180483	-10.30289025	15.86588047	26.85047651
0.361857143	-2.347418427	-7.041561458	-1.97898798	0.681299556	0.951976972	0.51392433	8.089168055	10.00583819	-5.027002538	26.11857192	10.98337981	-0.403368683	3.476864662	29.42542516	-10.14562233	-1.312523934	55.86641845	8.816714193	-14.33471623	0.753386867	-5.560895207	5.885284271	2.376935063	1.420284089	-14.10270146	-2.406832958	32.68534487	0.024514676	-9.957793568	15.73857733	26.53147392
0.3725	-2.611653484	-6.891907103	-2.142644437	0.678656302	0.952591238	0.513484627	7.090904541	9.813450432	-4.54070719	25.26267223	11.16927899	0.109636404	3.591718848	30.34762849	-10.09747408	-2.020762309	52.33676674	9.098467646	-13.77948079	0.535081986	-5.67983007	5.784614505	2.834089709	1.825333409	-14.53206799	-2.203248389	33.47293182	-0.247422753	-9.673447653	15.54166226	26.28225509
0.383142857	-2.889957872	-6.764648085	-2.316537185	0.675961134	0.952766786	0.513054576	6.100170329	9.634675124	-4.067226427	24.4046039	11.39458591	0.662960817	3.535619783	31.15994136	-10.0801929	-2.733194751	48.60137907	9.262972311	-13.1396162	0.314095809	-5.795758374	5.711935637	3.265443533	2.297560662	-14.95070434	-1.996789933	34.36311645	-0.50051671	-9.451150507	15.28890027	26.08843015
0.393785714	-3.182483422	-6.666038674	-2.504660084	0.673238251	0.952497406	0.512640804	5.124346011	9.475156516	-3.609593486	23.55949966	11.65006991	1.252492568	3.321166698	31.86911024	-10.09630144	-3.42802076	44.70276208	9.334291476	-12.40204803	0.089839008	-5.905729285	5.674629703	3.672522357	2.84448293	-15.35198336	-1.781557341	35.35197553	-0.73531975	-9.290797921	14.99441681	25.9366354
0.404428571	-3.488270331	-6.600042954	-2.710702528	0.67051625	0.951786069	0.51224564	4.167887655	9.337016036	-3.170875807	22.73933342	11.93110397	1.878289203	2.985788431	32.4846873	-10.14789108	-4.086643695	40.69523587	9.338192158	-11.554542	-0.133447209	-6.007088733	5.678124465	4.056931222	3.471915458	-15.73041492	-1.552585839	36.43499882	-0.953423505	-9.191075126	14.67194539	25.81506723
0.415071428	-3.804852827	-6.567787311	-2.937572446	0.667829131	0.950645495	0.511867084	3.231710288	9.218554	-2.753877125	21.95290244	12.23561253	2.544006861	2.575587101	33.018659	-10.23599278	-4.694734728	36.64602885	9.300130319	-10.58858786	-0.347468919	-6.097610383	5.725122016	4.419953755	4.183381515	-16.08177415	-1.306509019	37.60727225	-1.157723396	-9.149703959	14.33428168	25.71378779
0.425714286	-4.128039851	-6.56730123	-3.186858353	0.665216775	0.949098575	0.511498944	2.313010623	9.11439038	-2.360732406	21.20600112	12.56183302	3.255361979	2.131502121	33.48489583	-10.35994865	-5.242896999	32.63493597	9.241353768	-9.502732681	-0.541403563	-6.175542386	5.815115842	4.762108395	4.979606924	-16.40308866	-1.042049153	38.86342469	-1.352514948	-9.163692227	13.992975	25.6247948
0.436357143	-4.451884627	-6.593495808	-3.458298276	0.662724849	0.947178465	0.511131094	1.405518746	9.015932971	-1.99247985	20.50179024	12.9063375	4.01793639	1.679255553	33.89835432	-10.51669986	-5.726545713	28.75224553	9.173924494	-8.306105556	-0.704202447	-6.239581706	5.944155752	5.082728686	5.858111615	-16.69253218	-0.760347413	40.19730603	-1.543389168	-9.229516398	13.65826757	25.54185295
0.447	-4.76885365	-6.638338689	-3.749356457	0.660404133	0.944928107	0.510749796	0.500164247	8.912068587	-1.648724637	19.84141545	13.26255117	4.834765807	1.223146013	34.27400341	-10.69999633	-6.144752775	25.09481596	9.096214925	-7.021605704	-0.827507907	-6.288788074	6.104831003	5.379657862	6.812932137	-16.94927453	-0.465144376	41.6014348	-1.736911198	-9.343198571	13.33924334	25.4601144
0.457642857	-5.070199107	-6.691193973	-4.055015843	0.658309319	0.94239899	0.510338158	-0.41389101	8.789983689	-1.327520381	19.22489485	13.61988925	5.704190735	0.743291451	34.62554085	-10.89965041	-6.49813531	21.76052709	8.990933577	-5.687930093	-0.908700711	-6.322441094	6.286458919	5.649145527	7.834528783	-17.17333125	-0.16280193	43.0663363	-1.940093913	-9.500284206	13.04408208	25.37560871
0.468285714	-5.34652344	-6.739309441	-4.367866855	0.656497349	0.939649067	0.50987675	-1.347931601	8.636053175	-1.025580619	18.65222662	13.9636276	6.618244538	0.196589142	34.96406281	-11.10103577	-6.786318239	18.84171678	8.827355584	-4.359528359	-0.95329685	-6.339840431	6.475486544	5.886002259	8.909935609	-17.36543332	0.137865412	44.57993856	-2.159710603	-9.695768099	12.78027783	25.28471262
0.478928571	-5.588497838	-6.768440259	-4.678527599	0.655025403	0.936739947	0.509344441	-2.312189653	8.436758321	-0.7389018	18.12460923	14.27558308	7.561652903	-0.477884187	35.2969074	-11.285044	-7.00580323	16.41846619	8.568356913	-3.103761306	-0.975817118	-6.340062718	6.656117188	6.084025686	10.02319481	-17.52690882	0.426005567	46.1271917	-2.401516395	-9.924036251	12.55468782	25.18370847
0.489571428	-5.787642314	-6.763573262	-4.976345729	0.653948554	0.933733714	0.508719461	-3.31430851	8.179590194	-0.463751766	17.6456895	14.53542716	8.511374923	-1.349655604	35.62686069	-11.42858997	-7.149012829	14.55254269	8.180795147	-1.995388477	-0.998629047	-6.321739908	6.811120969	6.23664742	11.15603705	-17.65954438	0.689446744	47.68999948	-2.66945925	-10.17888135	12.37332579	25.06852037
0.500214286	-5.937031573	-6.709700006	-5.250284826	0.653317123	0.930689916	0.507980689	-4.35793764	7.853875084	-0.197870088	17.22277366	14.72226866	9.43660709	-2.485598208	35.9518836	-11.50567634	-7.205102502	13.2827897	7.646343144	-1.109163206	-1.048606527	-6.282963159	6.92275539	6.33771232	12.28871896	-17.76538365	0.915762902	49.24750354	-2.96498356	-10.45363453	12.24087376	24.93469553
0.510857143	-6.031806001	-6.592599464	-5.489926877	0.653173814	0.927663213	0.507109109	-5.441576336	7.451441589	0.05831079	16.86798002	14.81612786	10.2992677	-3.938468205	36.26536005	-11.48897517	-7.162517761	12.62236851	6.970195038	-0.511596208	-1.151944745	-6.22139654	6.97373746	6.382324473	13.40091257	-17.84645242	1.093636776	50.77670585	-3.286554465	-10.74141045	12.1600018	24.77763148
0.5215	-6.069396275	-6.399592536	-5.686550149	0.6535508	0.924702119	0.50608937	-6.557704948	6.967019876	0.300664575	16.59936464	14.79890886	11.0550637	-5.737132021	36.55659974	-11.35176864	-7.012315059	12.55761427	6.185784051	-0.253417278	-1.328273722	-6.134639292	6.948210513	6.367720243	14.47249295	-17.90446271	1.214291236	52.25331147	-3.629562457	-11.03538795	12.13075049	24.59294985
